<svg width="350" height="138" viewBox="0 0 350 140"  preserveAspectRatio="xMidYMid meet" fill="none" xmlns="http://www.w3.org/2000/svg">
<path d="M28.65 33.93C28.6498 33.3739 28.7609 32.8233 28.9767 32.3108C29.1925 31.7982 29.5086 31.334 29.9065 30.9454C30.3044 30.5569 30.776 30.2518 31.2935 30.0482C31.811 29.8447 32.364 29.7467 32.92 29.76C34.0385 29.7493 35.1156 30.182 35.9158 30.9635C36.7161 31.745 37.1742 32.8116 37.19 33.93V100.06C37.1913 100.621 37.0818 101.177 36.8677 101.696C36.6535 102.214 36.3391 102.685 35.9423 103.082C35.5455 103.479 35.0743 103.794 34.5556 104.008C34.037 104.222 33.4811 104.331 32.92 104.33C32.3563 104.341 31.7962 104.238 31.2732 104.027C30.7502 103.816 30.2751 103.502 29.8765 103.104C29.4778 102.705 29.1636 102.23 28.9529 101.707C28.7422 101.184 28.6391 100.624 28.65 100.06V33.93ZM41.57 79.54C40.8555 78.6516 40.4422 77.5589 40.39 76.42C40.4322 75.3152 40.8482 74.2574 41.57 73.42L60.9 51C61.2545 50.5427 61.7095 50.1732 62.2297 49.9201C62.7499 49.6669 63.3215 49.5368 63.9 49.54C64.6576 49.4894 65.4131 49.6658 66.07 50.0466C66.727 50.4274 67.2555 50.9953 67.5882 51.6778C67.9209 52.3603 68.0426 53.1265 67.9378 53.8786C67.8331 54.6306 67.5066 55.3344 67 55.9L49.69 76L68.16 97.45C68.819 98.2026 69.1971 99.1602 69.23 100.16C69.1689 101.282 68.6814 102.339 67.8674 103.114C67.0533 103.889 65.974 104.324 64.85 104.33C64.2299 104.335 63.617 104.196 63.0599 103.923C62.5028 103.651 62.0167 103.253 61.64 102.76L41.57 79.54Z" fill="white"/>
<path d="M129.45 31.5298C129.913 30.9879 130.486 30.5501 131.131 30.245C131.775 29.94 132.477 29.7746 133.19 29.7598C133.779 29.7585 134.363 29.8734 134.907 30.0979C135.452 30.3225 135.947 30.6523 136.364 31.0684C136.781 31.4845 137.112 31.9789 137.338 32.523C137.564 33.0672 137.68 33.6506 137.68 34.2398V99.8498C137.68 101.054 137.202 102.209 136.35 103.06C135.499 103.911 134.344 104.39 133.14 104.39C131.936 104.39 130.781 103.911 129.93 103.06C129.078 102.209 128.6 101.054 128.6 99.8498V85.3698H109.38C108.838 85.3845 108.298 85.2903 107.793 85.0929C107.287 84.8954 106.827 84.5987 106.438 84.2202C106.049 83.8418 105.74 83.3892 105.529 82.8893C105.318 82.3894 105.21 81.8523 105.21 81.3098C105.207 80.7614 105.313 80.218 105.522 79.7109C105.731 79.2037 106.038 78.743 106.425 78.3552C106.813 77.9675 107.274 77.6604 107.781 77.4518C108.288 77.2432 108.832 77.1371 109.38 77.1398H128.6V45.3798L79.37 102.76C78.5099 103.69 77.3243 104.252 76.06 104.33C74.9416 104.34 73.8644 103.908 73.0642 103.126C72.264 102.345 71.8058 101.278 71.79 100.16C71.7739 99.659 71.8605 99.1601 72.0446 98.694C72.2286 98.228 72.5061 97.8045 72.86 97.4498L129.45 31.5298Z" fill="#E35139"/>
<path d="M152.2 34.2402C152.2 33.0361 152.678 31.8813 153.53 31.0299C154.381 30.1785 155.536 29.7002 156.74 29.7002C157.944 29.7002 159.099 30.1785 159.95 31.0299C160.802 31.8813 161.28 33.0361 161.28 34.2402V99.8502C161.28 101.054 160.802 102.209 159.95 103.06C159.099 103.912 157.944 104.39 156.74 104.39C155.536 104.39 154.381 103.912 153.53 103.06C152.678 102.209 152.2 101.054 152.2 99.8502V34.2402Z" fill="#E35139"/>
<path d="M175.69 71.8298C175.69 58.3998 184.45 49.3398 197.69 49.3398C198.203 49.3319 198.712 49.4253 199.188 49.6148C199.664 49.8042 200.098 50.0859 200.465 50.4437C200.832 50.8014 201.125 51.2282 201.327 51.6995C201.528 52.1708 201.635 52.6773 201.64 53.1898C201.604 54.2176 201.174 55.1921 200.438 55.9109C199.703 56.6297 198.718 57.0376 197.69 57.0498C189.79 57.0498 184.24 62.1498 184.24 71.8298V100.06C184.241 100.622 184.131 101.178 183.917 101.698C183.702 102.217 183.387 102.689 182.989 103.086C182.591 103.483 182.118 103.797 181.599 104.01C181.079 104.224 180.522 104.332 179.96 104.33C179.396 104.341 178.836 104.238 178.313 104.027C177.79 103.816 177.315 103.502 176.916 103.103C176.518 102.705 176.204 102.23 175.993 101.707C175.782 101.184 175.679 100.624 175.69 100.06V71.8298Z" fill="white"/>
<path d="M206.23 76.9398C206.23 61.5198 218.41 49.3398 234.42 49.3398C250.43 49.3398 262.51 61.5198 262.51 76.9398C262.51 92.3598 250.44 104.53 234.42 104.53C218.4 104.53 206.23 92.3498 206.23 76.9398ZM253.86 76.9398C253.86 65.9398 245.42 57.0498 234.42 57.0498C229.145 57.0498 224.086 59.1454 220.356 62.8755C216.626 66.6056 214.53 71.6647 214.53 76.9398C214.53 82.215 216.626 87.2741 220.356 91.0042C224.086 94.7343 229.145 96.8298 234.42 96.8298C245.42 96.8298 253.86 87.8698 253.86 76.9398Z" fill="white"/>
<path d="M274.58 73.3998C274.58 58.2998 284.94 49.3398 297.96 49.3398C310.98 49.3398 321.45 58.3398 321.45 73.3998V100.06C321.451 100.621 321.342 101.177 321.128 101.695C320.913 102.214 320.599 102.685 320.202 103.082C319.805 103.479 319.334 103.793 318.816 104.007C318.297 104.222 317.741 104.331 317.18 104.33C316.616 104.341 316.056 104.238 315.533 104.027C315.01 103.816 314.535 103.502 314.136 103.103C313.738 102.705 313.424 102.23 313.213 101.707C313.002 101.184 312.899 100.624 312.91 100.06V73.1898C312.91 62.5598 306.29 57.0498 297.91 57.0498C289.53 57.0498 283.07 62.5598 283.07 73.1898V100.06C283.071 100.621 282.962 101.177 282.748 101.695C282.533 102.214 282.219 102.685 281.822 103.082C281.425 103.479 280.954 103.793 280.436 104.007C279.917 104.222 279.361 104.331 278.8 104.33C278.236 104.341 277.676 104.238 277.153 104.027C276.63 103.816 276.155 103.502 275.756 103.103C275.358 102.705 275.044 102.23 274.833 101.707C274.622 101.184 274.519 100.624 274.53 100.06L274.58 73.3998Z" fill="white"/>

</svg>
